<svg width="169" height="29" viewBox="0 0 169 29" fill="none" xmlns="http://www.w3.org/2000/svg">
<path d="M26.1 0V2.9L2.9 8.7V5.8H0V23.2H2.9V20.3L5.8 21.025V23.925C5.8 26.68 8.12 29 10.875 29C13.63 29 15.95 26.68 15.95 23.925V23.635L26.1 26.1V29H29V0H26.1ZM13.05 23.925C13.05 25.085 12.035 26.1 10.875 26.1C9.715 26.1 8.7 25.085 8.7 23.925V21.75L13.05 22.91V23.925ZM26.1 23.2L2.9 17.4V11.6L26.1 5.8V23.2Z" fill="url(#paint0_linear_1_10)"/>
<path d="M47.064 6.908C47.7827 6.908 48.4427 7.07667 49.044 7.414C49.6453 7.73667 50.122 8.184 50.474 8.756C50.8407 9.31333 51.024 9.92933 51.024 10.604C51.024 11.6307 50.782 12.4227 50.298 12.98C49.814 13.5373 49.198 13.9187 48.45 14.124V14.234C49.2567 14.3953 49.946 14.7693 50.518 15.356C51.09 15.9427 51.376 16.8153 51.376 17.974C51.376 18.7073 51.1853 19.382 50.804 19.998C50.4373 20.614 49.9313 21.1053 49.286 21.472C48.6553 21.824 47.9587 22 47.196 22H39.584V6.908H47.064ZM46.096 13.024C46.536 13.024 46.9247 12.8553 47.262 12.518C47.5993 12.1807 47.768 11.7553 47.768 11.242C47.768 10.626 47.5993 10.186 47.262 9.922C46.9247 9.64333 46.536 9.504 46.096 9.504H42.796V13.024H46.096ZM46.338 19.272C46.822 19.272 47.2327 19.1033 47.57 18.766C47.9073 18.4287 48.076 18.018 48.076 17.534V17.336C48.076 16.852 47.9073 16.4413 47.57 16.104C47.2327 15.7667 46.822 15.598 46.338 15.598H42.796V19.272H46.338Z" fill="white"/>
<path d="M59.8577 14.41C59.8577 13.9113 59.6964 13.508 59.3737 13.2C59.0657 12.892 58.5597 12.738 57.8557 12.738C57.445 12.738 57.093 12.8113 56.7997 12.958C56.5064 13.09 56.279 13.2587 56.1177 13.464C55.971 13.6693 55.8977 13.86 55.8977 14.036V14.212H52.7957C52.7664 14.036 52.7517 13.904 52.7517 13.816C52.7517 13.1853 52.957 12.6207 53.3677 12.122C53.793 11.6233 54.3797 11.2347 55.1277 10.956C55.8757 10.6773 56.7337 10.538 57.7017 10.538H58.1637C59.7477 10.538 60.9504 10.8533 61.7717 11.484C62.593 12.1 63.0037 12.9507 63.0037 14.036V19.228C63.0037 19.492 63.0624 19.69 63.1797 19.822C63.3117 19.954 63.4657 20.02 63.6417 20.02C63.7884 20.02 63.9497 19.9907 64.1257 19.932C64.3017 19.8733 64.441 19.822 64.5437 19.778V21.758C64.001 22.066 63.3557 22.22 62.6077 22.22C61.801 22.22 61.185 22.0587 60.7597 21.736C60.3344 21.3987 60.085 20.9293 60.0117 20.328C58.985 21.5893 57.7237 22.22 56.2277 22.22C55.113 22.22 54.1964 21.9927 53.4777 21.538C52.759 21.0833 52.3997 20.218 52.3997 18.942C52.3997 17.9007 52.693 17.1087 53.2797 16.566C53.881 16.0087 54.7097 15.6347 55.7657 15.444C56.8217 15.2533 58.1857 15.158 59.8577 15.158V14.41ZM59.8577 16.962C58.4644 16.962 57.423 17.1013 56.7337 17.38C56.059 17.644 55.7217 18.084 55.7217 18.7C55.7217 19.184 55.8537 19.5287 56.1177 19.734C56.3964 19.9247 56.8144 20.02 57.3717 20.02C57.753 20.02 58.1344 19.9173 58.5157 19.712C58.897 19.5067 59.2124 19.2133 59.4617 18.832C59.7257 18.4507 59.8577 18.0253 59.8577 17.556V16.962Z" fill="white"/>
<path d="M68.2101 17.446C68.2101 18.1793 68.4008 18.7953 68.7821 19.294C69.1635 19.778 69.6768 20.02 70.3221 20.02C70.9968 20.02 71.5248 19.8147 71.9061 19.404C72.3021 18.9787 72.5001 18.3553 72.5001 17.534H75.5361C75.5361 18.5753 75.3088 19.448 74.8541 20.152C74.4141 20.856 73.8275 21.3767 73.0941 21.714C72.3608 22.0513 71.5541 22.22 70.6741 22.22H70.3221C68.6795 22.22 67.3741 21.736 66.4061 20.768C65.4381 19.7853 64.9541 18.4287 64.9541 16.698V16.06C64.9541 14.916 65.1815 13.9333 65.6361 13.112C66.1055 12.276 66.7435 11.638 67.5501 11.198C68.3568 10.758 69.2808 10.538 70.3221 10.538H70.6741C71.5395 10.538 72.3388 10.7287 73.0721 11.11C73.8201 11.4767 74.4141 12.0193 74.8541 12.738C75.3088 13.442 75.5361 14.278 75.5361 15.246H72.3461C72.3461 14.4833 72.1775 13.8747 71.8401 13.42C71.5028 12.9653 71.0041 12.738 70.3441 12.738C69.6841 12.738 69.1635 13.002 68.7821 13.53C68.4008 14.0433 68.2101 14.696 68.2101 15.488V17.446Z" fill="white"/>
<path d="M84.4105 22L81.7486 18.326L80.4945 19.536V22H77.2825V6.16H80.4945V15.994L84.4325 10.758H88.0625L83.9265 16.038L88.2385 22H84.4105Z" fill="white"/>
<path d="M92.1441 16.016C92.1441 17.1307 92.4447 17.996 93.0461 18.612C93.6474 19.2133 94.4101 19.514 95.3341 19.514C96.3754 19.514 97.1454 19.2353 97.6441 18.678C98.1427 18.106 98.3921 17.2333 98.3921 16.06H101.494C101.494 17.3507 101.23 18.4653 100.702 19.404C100.189 20.328 99.4774 21.032 98.5681 21.516C97.6587 21.9853 96.6321 22.22 95.4881 22.22H95.1801C93.9187 22.22 92.7894 21.9633 91.7921 21.45C90.7947 20.9367 90.0101 20.1813 89.4381 19.184C88.8661 18.172 88.5801 16.9547 88.5801 15.532V13.376C88.5801 11.9973 88.8661 10.802 89.4381 9.79C90.0101 8.778 90.7874 8.008 91.7701 7.48C92.7674 6.952 93.8747 6.688 95.0921 6.688H95.4001C96.5734 6.688 97.6147 6.92267 98.5241 7.392C99.4481 7.84667 100.174 8.54333 100.702 9.482C101.23 10.406 101.494 11.5427 101.494 12.892H98.2601C98.2601 11.748 98.0034 10.8827 97.4901 10.296C96.9914 9.69467 96.2654 9.394 95.3121 9.394C94.3881 9.394 93.6254 9.702 93.0241 10.318C92.4374 10.9193 92.1441 11.7773 92.1441 12.892V16.016Z" fill="white"/>
<path d="M106.546 11.858C107.396 10.978 108.438 10.538 109.67 10.538C110.814 10.538 111.752 10.846 112.486 11.462C113.234 12.078 113.608 12.9727 113.608 14.146V22H110.396V14.85C110.396 14.278 110.227 13.8087 109.89 13.442C109.567 13.0607 109.149 12.87 108.636 12.87C108.064 12.87 107.572 13.09 107.162 13.53C106.751 13.9553 106.546 14.476 106.546 15.092V22H103.334V6.16H106.546V11.858Z" fill="white"/>
<path d="M122.708 14.41C122.708 13.9113 122.547 13.508 122.224 13.2C121.916 12.892 121.41 12.738 120.706 12.738C120.295 12.738 119.943 12.8113 119.65 12.958C119.357 13.09 119.129 13.2587 118.968 13.464C118.821 13.6693 118.748 13.86 118.748 14.036V14.212H115.646C115.617 14.036 115.602 13.904 115.602 13.816C115.602 13.1853 115.807 12.6207 116.218 12.122C116.643 11.6233 117.23 11.2347 117.978 10.956C118.726 10.6773 119.584 10.538 120.552 10.538H121.014C122.598 10.538 123.801 10.8533 124.622 11.484C125.443 12.1 125.854 12.9507 125.854 14.036V19.228C125.854 19.492 125.913 19.69 126.03 19.822C126.162 19.954 126.316 20.02 126.492 20.02C126.639 20.02 126.8 19.9907 126.976 19.932C127.152 19.8733 127.291 19.822 127.394 19.778V21.758C126.851 22.066 126.206 22.22 125.458 22.22C124.651 22.22 124.035 22.0587 123.61 21.736C123.185 21.3987 122.935 20.9293 122.862 20.328C121.835 21.5893 120.574 22.22 119.078 22.22C117.963 22.22 117.047 21.9927 116.328 21.538C115.609 21.0833 115.25 20.218 115.25 18.942C115.25 17.9007 115.543 17.1087 116.13 16.566C116.731 16.0087 117.56 15.6347 118.616 15.444C119.672 15.2533 121.036 15.158 122.708 15.158V14.41ZM122.708 16.962C121.315 16.962 120.273 17.1013 119.584 17.38C118.909 17.644 118.572 18.084 118.572 18.7C118.572 19.184 118.704 19.5287 118.968 19.734C119.247 19.9247 119.665 20.02 120.222 20.02C120.603 20.02 120.985 19.9173 121.366 19.712C121.747 19.5067 122.063 19.2133 122.312 18.832C122.576 18.4507 122.708 18.0253 122.708 17.556V16.962Z" fill="white"/>
<path d="M131.061 12.408C131.985 11.1613 133.18 10.538 134.647 10.538C135.791 10.538 136.729 10.846 137.463 11.462C138.211 12.078 138.585 12.9727 138.585 14.146V22H135.373V14.85C135.373 14.278 135.204 13.8087 134.867 13.442C134.544 13.0607 134.126 12.87 133.613 12.87C133.041 12.87 132.549 13.09 132.139 13.53C131.728 13.9553 131.523 14.476 131.523 15.092V22H128.311V10.758H130.709L131.061 12.408Z" fill="white"/>
<path d="M143.527 12.408C144.451 11.1613 145.647 10.538 147.113 10.538C148.257 10.538 149.196 10.846 149.929 11.462C150.677 12.078 151.051 12.9727 151.051 14.146V22H147.839V14.85C147.839 14.278 147.671 13.8087 147.333 13.442C147.011 13.0607 146.593 12.87 146.079 12.87C145.507 12.87 145.016 13.09 144.605 13.53C144.195 13.9553 143.989 14.476 143.989 15.092V22H140.777V10.758H143.175L143.527 12.408Z" fill="white"/>
<path d="M163.672 17.798C163.672 18.7807 163.438 19.6093 162.968 20.284C162.499 20.944 161.876 21.4353 161.098 21.758C160.336 22.066 159.5 22.22 158.59 22.22H158.238C157.197 22.22 156.258 22 155.422 21.56C154.586 21.12 153.926 20.4893 153.442 19.668C152.973 18.832 152.738 17.842 152.738 16.698V16.06C152.738 14.9307 152.98 13.948 153.464 13.112C153.948 12.276 154.601 11.638 155.422 11.198C156.258 10.758 157.197 10.538 158.238 10.538H158.59C159.5 10.538 160.343 10.7287 161.12 11.11C161.898 11.4767 162.521 12.0193 162.99 12.738C163.46 13.442 163.694 14.278 163.694 15.246V16.918H155.994V17.446C155.994 18.1793 156.207 18.7953 156.632 19.294C157.072 19.778 157.666 20.02 158.414 20.02C159.089 20.02 159.617 19.8367 159.998 19.47C160.394 19.0887 160.592 18.5313 160.592 17.798H163.672ZM158.26 12.738C157.615 12.738 157.087 12.9653 156.676 13.42C156.28 13.8747 156.053 14.454 155.994 15.158H160.438C160.438 14.41 160.262 13.8233 159.91 13.398C159.573 12.958 159.023 12.738 158.26 12.738Z" fill="white"/>
<path d="M165.432 22V6.16H168.644V22H165.432Z" fill="white"/>
<defs>
<linearGradient id="paint0_linear_1_10" x1="203.536" y1="-3.5" x2="188.669" y2="70.4416" gradientUnits="userSpaceOnUse">
<stop stop-color="#00A3FF"/>
<stop offset="0.859375" stop-color="#540196"/>
</linearGradient>
</defs>
</svg>
